<svg xmlns="http://www.w3.org/2000/svg" width="42" height="55" viewBox="0 0 42 55"><defs><clipPath id="a"><path data-name="Clip 2" d="M0 0h42v55H0z" transform="translate(.438)" fill="none"/></clipPath></defs><g data-name="Group 3"><path data-name="Clip 2" d="M0 0h42v55H0z" fill="none"/><g data-name="Group 3" clip-path="url(#a)" transform="translate(-.438)"><path data-name="Fill 1" d="M21.438 55a20.965 20.965 0 0 1-21-20.883V21.18h.006v-.298A20.965 20.965 0 0 1 21.438 0c.207 0 .421.005.636.015a20.948 20.948 0 0 1 14.414 6.322 20.693 20.693 0 0 1 5.95 14.545v13.235a20.966 20.966 0 0 1-21 20.883zM3.146 31.138v2.979a18.292 18.292 0 0 0 36.583 0v-2.979a21.056 21.056 0 0 1-36.583 0zm15.092-9.575v17.222a18.4 18.4 0 0 0 3.2.285c5.348 0 8.8-3.436 8.8-8.753 0-6.047-4.422-8.754-8.8-8.754zM15.526 3.674a18.365 18.365 0 0 0-8.888 6.533 18.093 18.093 0 0 0-2.415 16.836 18.207 18.207 0 0 0 4.433 6.842 18.547 18.547 0 0 0 6.868 4.2zM30.91 5.326a11.292 11.292 0 0 1 1.265 5.351 11.682 11.682 0 0 1-1.444 5.908 9.442 9.442 0 0 1-3.646 3.569 10.448 10.448 0 0 1 4.288 4.029 11.95 11.95 0 0 1 1.577 6.133 12.425 12.425 0 0 1-1.241 5.6 18.277 18.277 0 0 0 4.145-3.842 18.09 18.09 0 0 0 1.447-20.242 18.414 18.414 0 0 0-6.391-6.506zm-9.472-2.632a18.508 18.508 0 0 0-3.2.284v15.891h3.2c5.927 0 8.03-4.413 8.03-8.192a8.342 8.342 0 0 0-1.807-5.333 7.6 7.6 0 0 0-5.683-2.638h-.186a6.39 6.39 0 0 0-.354-.012z" fill="#8bacad"/></g></g></svg>