<svg xmlns="http://www.w3.org/2000/svg" width="540" height="81" viewBox="0 0 540 81"><defs><style>.cls-1{fill:none}</style><clipPath id="clip-path"><path id="Clip_2" data-name="Clip 2" class="cls-1" d="M0 0h540v81H0z" transform="translate(.065)"/></clipPath></defs><g id="Group_3" data-name="Group 3" transform="translate(-.065)"><path id="Clip_2-2" data-name="Clip 2" class="cls-1" d="M0 0h540v81H0z" transform="translate(.065)"/><g id="Group_3-2" data-name="Group 3" clip-path="url(#clip-path)"><path id="Fill_1" data-name="Fill 1" d="M483.968 81h-11.65V0h35.632a36.751 36.751 0 0 1 11.277 1.613 22.8 22.8 0 0 1 8.316 4.654 19.75 19.75 0 0 1 5.144 7.42 26.545 26.545 0 0 1 1.761 9.911 26.547 26.547 0 0 1-3.348 12.926 21.892 21.892 0 0 1-4.774 5.835 22.311 22.311 0 0 1-7.371 4.162L540 81h-13.557l-20.086-32.915h-22.389V81zm0-70.19V37.5h22.517c10.447 0 16.2-4.936 16.2-13.9a15.858 15.858 0 0 0-.941-5.827 9.106 9.106 0 0 0-2.92-3.971 12.858 12.858 0 0 0-5.039-2.267 31.434 31.434 0 0 0-7.3-.722zM435.227 81h-57.848V0h56.041v10.811h-44.39v23.06h37.487v10.81H389.03v25.506h46.2V81zm-117.37 0h-11.648V10.811h-25.725V0h63.146v10.811h-25.773zm-93.314 0h-11.651V10.811h-25.724V0h63.146v10.811h-25.771zm-66.235 0h-57.845V0h56.044v10.811h-44.4v23.06H149.6v10.81h-37.49v25.506h46.2V81zM35.972 81H0V0h35.07c8.05 0 14.718 2.108 19.283 6.1a18.473 18.473 0 0 1 4.82 6.537 19.566 19.566 0 0 1 1.607 7.9 23.8 23.8 0 0 1-2.257 10.313 16 16 0 0 1-6.654 7.25v.256a16.837 16.837 0 0 1 4.631 3.278 21.47 21.47 0 0 1 3.6 4.729A24.381 24.381 0 0 1 63.258 58.2c0 6.632-2.349 12.251-6.792 16.251a23.733 23.733 0 0 1-8.523 4.808A38.264 38.264 0 0 1 35.972 81zM11.651 44.342v26.07h23.641c5.338 0 8.858-.72 11.414-2.335C49.93 66.039 51.5 62.547 51.5 57.4a14.071 14.071 0 0 0-1.382-6.492 10.136 10.136 0 0 0-3.736-4c-2.794-1.731-6.75-2.573-12.094-2.573H11.651zm0-33.531v23.06h23.194c9.4 0 14.171-4.182 14.171-12.43a11.543 11.543 0 0 0-.88-4.677 8.23 8.23 0 0 0-2.667-3.318 12.415 12.415 0 0 0-4.492-1.979 27.358 27.358 0 0 0-6.358-.655H11.651z" transform="translate(.065)" fill="#13333a"/></g></g></svg>