<svg xmlns="http://www.w3.org/2000/svg" width="540" height="81" viewBox="0 0 540 81"><path fill="#13333A" d="M484.033 10.81h22.517c11.305 0 16.2 3.71 16.2 12.788 0 8.846-5.63 13.9-16.2 13.9h-22.517V10.81zM540.065 81l-21.041-34.479c11.735-4.018 15.49-15 15.49-22.923C534.513 8.846 524.93 0 508.013 0h-35.632v81h11.65V48.085h22.39L526.508 81h13.558zM280.55 0h63.146v10.81h-25.773V81h-11.648V10.81H280.55V0zm-93.316 0h63.145v10.81h-25.77V81h-11.65V10.81h-25.725V0zm201.861 70.186h46.198V81h-57.848V0h56.041v10.81h-44.39v23.06h37.487v10.812h-37.488v25.504zm-276.918 0h46.198V81h-57.846V0h56.045v10.81h-44.397v23.06h37.487v10.812h-37.487v25.504zm-76.819.226H11.716v-26.07h22.636c9.302 0 17.211 2.509 17.211 13.06 0 11.12-7.377 13.01-16.206 13.01zM11.716 10.811h22.97c9.737 0 14.396 3.48 14.396 10.63 0 8.574-5.136 12.43-14.172 12.43H11.716V10.81zM51.934 38.36v-.257c5.864-3.175 8.91-10.31 8.91-17.57C60.845 9.414 52.278 0 35.136 0H.065v81h35.972c18.269 0 27.286-9.873 27.286-22.804 0-8.28-4.62-16.662-11.39-19.836z" fill-rule="evenodd"/></svg>